<svg version="1.1" xmlns="http://www.w3.org/2000/svg" xmlns:xlink="http://www.w3.org/1999/xlink" width="92.25" height="62.75" viewBox="0,0,92.25,62.75"><g transform="translate(-193.125,-146)"><g data-paper-data="{&quot;isPaintingLayer&quot;:true}" fill-rule="nonzero" stroke="#000000" stroke-width="2" stroke-linecap="butt" stroke-linejoin="miter" stroke-miterlimit="10" stroke-dasharray="" stroke-dashoffset="0" style="mix-blend-mode: normal"><path d="M268.375,155.875c0,8.76752 -16.38324,15.125 -29.5,15.125c-13.11676,0 -33.5,-6.35748 -33.5,-15.125c0,-8.76752 20.13324,-8.875 33.25,-8.875c13.11676,0 29.75,0.10748 29.75,8.875z" fill="#ec862c"/><path d="M194.125,194.5v-12.25h14.75v12.25z" fill="#ff9941"/><path d="M269.375,193.5v-12.25h15v12.25z" fill="#ff9941"/><g><path d="M212.875,196.75v-44h51.75v44z" fill="#ff9941"/><path d="M220.625,192.25v-6.5h39v6.5z" fill="#ffffff"/></g><path d="M219.375,178.75v-13.5h14.5v13.5z" fill="#ffffff"/><path d="M247.625,178.25v-12.75h12.75v12.75z" fill="#ffffff"/><g><path d="M213.625,207.75v-8.25h14.25v8.25z" fill="#ff9941"/><path d="M248.875,207.75v-8.25h14.25v8.25z" fill="#ff9941"/></g></g></g></svg>